{
    "asset" : {
        "generator" : "Khronos glTF Blender I/O v3.4.49",
        "version" : "2.0"
    },
    "extensionsUsed" : [
        "KHR_materials_specular",
        "KHR_materials_ior"
    ],
    "scene" : 0,
    "scenes" : [
        {
            "name" : "Scene",
            "nodes" : [
                2
            ]
        }
    ],
    "nodes" : [
        {
            "mesh" : 0,
            "name" : "Chair",
            "translation" : [
                -0.0002824035473167896,
                0.10521090775728226,
                -0.007958680391311646
            ]
        },
        {
            "mesh" : 1,
            "name" : "Chair.008",
            "translation" : [
                -0.0002824035473167896,
                0.10521090775728226,
                -0.007958680391311646
            ]
        },
        {
            "children" : [
                0,
                1
            ],
            "name" : "Empty.001"
        }
    ],
    "materials" : [
        {
            "doubleSided" : true,
            "extensions" : {
                "KHR_materials_specular" : {
                    "specularColorFactor" : [
                        1.401256849266605,
                        1.401256849266605,
                        1.401256849266605
                    ]
                },
                "KHR_materials_ior" : {
                    "ior" : 1.4500000476837158
                }
            },
            "name" : "Chair",
            "normalTexture" : {
                "index" : 0
            },
            "pbrMetallicRoughness" : {
                "baseColorTexture" : {
                    "index" : 1
                },
                "metallicRoughnessTexture" : {
                    "index" : 2
                }
            }
        },
        {
            "doubleSided" : true,
            "name" : "Chrome",
            "pbrMetallicRoughness" : {
                "baseColorFactor" : [
                    0.800000011920929,
                    0.800000011920929,
                    0.800000011920929,
                    1
                ],
                "roughnessFactor" : 0.050000011920928955
            }
        }
    ],
    "meshes" : [
        {
            "name" : "Plane.004",
            "primitives" : [
                {
                    "attributes" : {
                        "POSITION" : 0,
                        "TEXCOORD_0" : 1,
                        "NORMAL" : 2
                    },
                    "indices" : 3,
                    "material" : 0
                },
                {
                    "attributes" : {
                        "POSITION" : 4,
                        "TEXCOORD_0" : 5,
                        "NORMAL" : 6
                    },
                    "indices" : 7,
                    "material" : 1
                }
            ]
        },
        {
            "name" : "Plane.016",
            "primitives" : [
                {
                    "attributes" : {
                        "POSITION" : 8,
                        "TEXCOORD_0" : 9,
                        "NORMAL" : 10
                    },
                    "indices" : 11,
                    "material" : 0
                }
            ]
        }
    ],
    "textures" : [
        {
            "sampler" : 0,
            "source" : 0
        },
        {
            "sampler" : 0,
            "source" : 1
        },
        {
            "sampler" : 0,
            "source" : 2
        }
    ],
    "images" : [
        {
            "bufferView" : 4,
            "mimeType" : "image/jpeg",
            "name" : "Chair_normal"
        },
        {
            "bufferView" : 5,
            "mimeType" : "image/jpeg",
            "name" : "Chair_Albedo"
        },
        {
            "bufferView" : 6,
            "mimeType" : "image/jpeg",
            "name" : "Chair_metallic-Chair_roughness"
        }
    ],
    "accessors" : [
        {
            "bufferView" : 0,
            "componentType" : 5126,
            "count" : 5883,
            "max" : [
                0.4714091718196869,
                0.8953872919082642,
                0.39132797718048096
            ],
            "min" : [
                -0.4714091718196869,
                -0.1050199419260025,
                -0.4680117964744568
            ],
            "type" : "VEC3"
        },
        {
            "bufferView" : 1,
            "componentType" : 5126,
            "count" : 5883,
            "type" : "VEC2"
        },
        {
            "bufferView" : 2,
            "componentType" : 5126,
            "count" : 5883,
            "type" : "VEC3"
        },
        {
            "bufferView" : 3,
            "componentType" : 5123,
            "count" : 28932,
            "type" : "SCALAR"
        },
        {
            "bufferView" : 7,
            "componentType" : 5126,
            "count" : 515,
            "max" : [
                0.3643898665904999,
                0.0015098025323823094,
                0.38171064853668213
            ],
            "min" : [
                -0.3642153739929199,
                -0.073418527841568,
                -0.31367382407188416
            ],
            "type" : "VEC3"
        },
        {
            "bufferView" : 8,
            "componentType" : 5126,
            "count" : 515,
            "type" : "VEC2"
        },
        {
            "bufferView" : 9,
            "componentType" : 5126,
            "count" : 515,
            "type" : "VEC3"
        },
        {
            "bufferView" : 10,
            "componentType" : 5123,
            "count" : 960,
            "type" : "SCALAR"
        },
        {
            "bufferView" : 11,
            "componentType" : 5126,
            "count" : 2406,
            "max" : [
                0.37451526522636414,
                0.8134525418281555,
                0.3352993130683899
            ],
            "min" : [
                -0.37451526522636414,
                0.07445680350065231,
                -0.46458762884140015
            ],
            "type" : "VEC3"
        },
        {
            "bufferView" : 12,
            "componentType" : 5126,
            "count" : 2406,
            "type" : "VEC2"
        },
        {
            "bufferView" : 13,
            "componentType" : 5126,
            "count" : 2406,
            "type" : "VEC3"
        },
        {
            "bufferView" : 14,
            "componentType" : 5123,
            "count" : 8472,
            "type" : "SCALAR"
        }
    ],
    "bufferViews" : [
        {
            "buffer" : 0,
            "byteLength" : 70596,
            "byteOffset" : 0,
            "target" : 34962
        },
        {
            "buffer" : 0,
            "byteLength" : 47064,
            "byteOffset" : 70596,
            "target" : 34962
        },
        {
            "buffer" : 0,
            "byteLength" : 70596,
            "byteOffset" : 117660,
            "target" : 34962
        },
        {
            "buffer" : 0,
            "byteLength" : 57864,
            "byteOffset" : 188256,
            "target" : 34963
        },
        {
            "buffer" : 0,
            "byteLength" : 290036,
            "byteOffset" : 246120
        },
        {
            "buffer" : 0,
            "byteLength" : 243923,
            "byteOffset" : 536156
        },
        {
            "buffer" : 0,
            "byteLength" : 622435,
            "byteOffset" : 780080
        },
        {
            "buffer" : 0,
            "byteLength" : 6180,
            "byteOffset" : 1402516,
            "target" : 34962
        },
        {
            "buffer" : 0,
            "byteLength" : 4120,
            "byteOffset" : 1408696,
            "target" : 34962
        },
        {
            "buffer" : 0,
            "byteLength" : 6180,
            "byteOffset" : 1412816,
            "target" : 34962
        },
        {
            "buffer" : 0,
            "byteLength" : 1920,
            "byteOffset" : 1418996,
            "target" : 34963
        },
        {
            "buffer" : 0,
            "byteLength" : 28872,
            "byteOffset" : 1420916,
            "target" : 34962
        },
        {
            "buffer" : 0,
            "byteLength" : 19248,
            "byteOffset" : 1449788,
            "target" : 34962
        },
        {
            "buffer" : 0,
            "byteLength" : 28872,
            "byteOffset" : 1469036,
            "target" : 34962
        },
        {
            "buffer" : 0,
            "byteLength" : 16944,
            "byteOffset" : 1497908,
            "target" : 34963
        }
    ],
    "samplers" : [
        {
            "magFilter" : 9729,
            "minFilter" : 9987
        }
    ],
    "buffers" : [
        {
            "byteLength" : 1514852,
            "uri" : "data:application/octet-stream;base64,"
        }
    ]
}
