{
    "asset" : {
        "generator" : "Khronos glTF Blender I/O v1.7.33",
        "version" : "2.0"
    },
    "scene" : 0,
    "scenes" : [
        {
            "name" : "Scene",
            "nodes" : [
                0,
                1,
                2,
                3,
                4,
                5
            ]
        }
    ],
    "nodes" : [
        {
            "mesh" : 0,
            "name" : "Statue.001"
        },
        {
            "mesh" : 1,
            "name" : "Torus.004",
            "translation" : [
                -0.3318149149417877,
                0.8574255704879761,
                -0.09469432383775711
            ]
        },
        {
            "mesh" : 2,
            "name" : "Icosphere.001",
            "scale" : [
                1.4353803396224976,
                1.4353803396224976,
                1.4353803396224976
            ],
            "translation" : [
                -0.5359370112419128,
                0.4761013090610504,
                0.14933401346206665
            ]
        },
        {
            "mesh" : 3,
            "name" : "Sphere.001",
            "translation" : [
                -0.14411456882953644,
                0.22069835662841797,
                0.3173489570617676
            ]
        },
        {
            "mesh" : 4,
            "name" : "Cone.001",
            "translation" : [
                0.23642635345458984,
                0.8524985909461975,
                -0.2255319505929947
            ]
        },
        {
            "mesh" : 5,
            "name" : "Cylinder.001",
            "translation" : [
                0.5197060704231262,
                0.3045122027397156,
                -0.044912189245224
            ]
        }
    ],
    "materials" : [
        {
            "doubleSided" : true,
            "emissiveFactor" : [
                1,
                1,
                1
            ],
            "emissiveTexture" : {
                "index" : 0
            },
            "name" : "Default",
            "pbrMetallicRoughness" : {}
        },
        {
            "alphaMode" : "BLEND",
            "doubleSided" : true,
            "name" : "glass",
            "pbrMetallicRoughness" : {
                "baseColorFactor" : [
                    0.041485726833343506,
                    0.041485726833343506,
                    0.041485726833343506,
                    0.30000001192092896
                ],
                "roughnessFactor" : 0.018181830644607544
            }
        },
        {
            "doubleSided" : true,
            "emissiveFactor" : [
                1,
                1,
                1
            ],
            "emissiveTexture" : {
                "index" : 1
            },
            "name" : "Material.002",
            "pbrMetallicRoughness" : {}
        }
    ],
    "meshes" : [
        {
            "name" : "Statue.001",
            "primitives" : [
                {
                    "attributes" : {
                        "POSITION" : 0,
                        "NORMAL" : 1,
                        "TEXCOORD_0" : 2
                    },
                    "indices" : 3,
                    "material" : 0
                },
                {
                    "attributes" : {
                        "POSITION" : 4,
                        "NORMAL" : 5,
                        "TEXCOORD_0" : 6
                    },
                    "indices" : 7,
                    "material" : 1
                }
            ]
        },
        {
            "name" : "Torus.004",
            "primitives" : [
                {
                    "attributes" : {
                        "POSITION" : 8,
                        "NORMAL" : 9,
                        "TEXCOORD_0" : 10
                    },
                    "indices" : 11,
                    "material" : 2
                }
            ]
        },
        {
            "name" : "Icosphere.002",
            "primitives" : [
                {
                    "attributes" : {
                        "POSITION" : 12,
                        "NORMAL" : 13,
                        "TEXCOORD_0" : 14
                    },
                    "indices" : 15,
                    "material" : 2
                }
            ]
        },
        {
            "name" : "Sphere.002",
            "primitives" : [
                {
                    "attributes" : {
                        "POSITION" : 16,
                        "NORMAL" : 17,
                        "TEXCOORD_0" : 18
                    },
                    "indices" : 19,
                    "material" : 2
                }
            ]
        },
        {
            "name" : "Cone.002",
            "primitives" : [
                {
                    "attributes" : {
                        "POSITION" : 20,
                        "NORMAL" : 21,
                        "TEXCOORD_0" : 22
                    },
                    "indices" : 23,
                    "material" : 2
                }
            ]
        },
        {
            "name" : "Cylinder.002",
            "primitives" : [
                {
                    "attributes" : {
                        "POSITION" : 24,
                        "NORMAL" : 25,
                        "TEXCOORD_0" : 26
                    },
                    "indices" : 27,
                    "material" : 2
                }
            ]
        }
    ],
    "textures" : [
        {
            "sampler" : 0,
            "source" : 0
        },
        {
            "sampler" : 0,
            "source" : 1
        }
    ],
    "images" : [
        {
            "bufferView" : 4,
            "mimeType" : "image/jpeg",
            "name" : "Albedo"
        },
        {
            "bufferView" : 13,
            "mimeType" : "image/jpeg",
            "name" : "Figures2"
        }
    ],
    "accessors" : [
        {
            "bufferView" : 0,
            "componentType" : 5126,
            "count" : 16580,
            "max" : [
                0.3496110141277313,
                1.0299352407455444,
                0.25717177987098694
            ],
            "min" : [
                -0.3337000012397766,
                0.23144696652889252,
                -0.17161689698696136
            ],
            "type" : "VEC3"
        },
        {
            "bufferView" : 1,
            "componentType" : 5126,
            "count" : 16580,
            "type" : "VEC3"
        },
        {
            "bufferView" : 2,
            "componentType" : 5126,
            "count" : 16580,
            "type" : "VEC2"
        },
        {
            "bufferView" : 3,
            "componentType" : 5123,
            "count" : 84213,
            "type" : "SCALAR"
        },
        {
            "bufferView" : 5,
            "componentType" : 5126,
            "count" : 1028,
            "max" : [
                0.14033709466457367,
                0.7902237176895142,
                0.20630377531051636
            ],
            "min" : [
                -0.03548140451312065,
                0.7233870029449463,
                0.10466615855693817
            ],
            "type" : "VEC3"
        },
        {
            "bufferView" : 6,
            "componentType" : 5126,
            "count" : 1028,
            "type" : "VEC3"
        },
        {
            "bufferView" : 7,
            "componentType" : 5126,
            "count" : 1028,
            "type" : "VEC2"
        },
        {
            "bufferView" : 8,
            "componentType" : 5123,
            "count" : 5856,
            "type" : "SCALAR"
        },
        {
            "bufferView" : 9,
            "componentType" : 5126,
            "count" : 637,
            "max" : [
                0.09233243763446808,
                0.09233243763446808,
                0.07732117176055908
            ],
            "min" : [
                -0.09233243763446808,
                -0.09233243763446808,
                -0.07732117176055908
            ],
            "type" : "VEC3"
        },
        {
            "bufferView" : 10,
            "componentType" : 5126,
            "count" : 637,
            "type" : "VEC3"
        },
        {
            "bufferView" : 11,
            "componentType" : 5126,
            "count" : 637,
            "type" : "VEC2"
        },
        {
            "bufferView" : 12,
            "componentType" : 5123,
            "count" : 3456,
            "type" : "SCALAR"
        },
        {
            "bufferView" : 14,
            "componentType" : 5126,
            "count" : 22,
            "max" : [
                0.09309250861406326,
                0.09991172701120377,
                0.09108098596334457
            ],
            "min" : [
                -0.09309250861406326,
                -0.09991172701120377,
                -0.09108098596334457
            ],
            "type" : "VEC3"
        },
        {
            "bufferView" : 15,
            "componentType" : 5126,
            "count" : 22,
            "type" : "VEC3"
        },
        {
            "bufferView" : 16,
            "componentType" : 5126,
            "count" : 22,
            "type" : "VEC2"
        },
        {
            "bufferView" : 17,
            "componentType" : 5123,
            "count" : 60,
            "type" : "SCALAR"
        },
        {
            "bufferView" : 18,
            "componentType" : 5126,
            "count" : 323,
            "max" : [
                0.10319352149963379,
                0.10319353640079498,
                0.1031935065984726
            ],
            "min" : [
                -0.1031934842467308,
                -0.10319353640079498,
                -0.10319347679615021
            ],
            "type" : "VEC3"
        },
        {
            "bufferView" : 19,
            "componentType" : 5126,
            "count" : 323,
            "type" : "VEC3"
        },
        {
            "bufferView" : 20,
            "componentType" : 5126,
            "count" : 323,
            "type" : "VEC2"
        },
        {
            "bufferView" : 21,
            "componentType" : 5123,
            "count" : 1584,
            "type" : "SCALAR"
        },
        {
            "bufferView" : 22,
            "componentType" : 5126,
            "count" : 25,
            "max" : [
                0.08307278156280518,
                0.03686979040503502,
                0.04747583344578743
            ],
            "min" : [
                -0.05187841132283211,
                -0.0775999128818512,
                -0.08581076562404633
            ],
            "type" : "VEC3"
        },
        {
            "bufferView" : 23,
            "componentType" : 5126,
            "count" : 25,
            "type" : "VEC3"
        },
        {
            "bufferView" : 24,
            "componentType" : 5126,
            "count" : 25,
            "type" : "VEC2"
        },
        {
            "bufferView" : 25,
            "componentType" : 5123,
            "count" : 66,
            "type" : "SCALAR"
        },
        {
            "bufferView" : 26,
            "componentType" : 5126,
            "count" : 128,
            "max" : [
                0.09363426268100739,
                0.0972786620259285,
                0.10593971610069275
            ],
            "min" : [
                -0.12232951074838638,
                -0.0972786620259285,
                -0.12450680136680603
            ],
            "type" : "VEC3"
        },
        {
            "bufferView" : 27,
            "componentType" : 5126,
            "count" : 128,
            "type" : "VEC3"
        },
        {
            "bufferView" : 28,
            "componentType" : 5126,
            "count" : 128,
            "type" : "VEC2"
        },
        {
            "bufferView" : 29,
            "componentType" : 5123,
            "count" : 348,
            "type" : "SCALAR"
        }
    ],
    "bufferViews" : [
        {
            "buffer" : 0,
            "byteLength" : 198960,
            "byteOffset" : 0
        },
        {
            "buffer" : 0,
            "byteLength" : 198960,
            "byteOffset" : 198960
        },
        {
            "buffer" : 0,
            "byteLength" : 132640,
            "byteOffset" : 397920
        },
        {
            "buffer" : 0,
            "byteLength" : 168426,
            "byteOffset" : 530560
        },
        {
            "buffer" : 0,
            "byteLength" : 334202,
            "byteOffset" : 698988
        },
        {
            "buffer" : 0,
            "byteLength" : 12336,
            "byteOffset" : 1033192
        },
        {
            "buffer" : 0,
            "byteLength" : 12336,
            "byteOffset" : 1045528
        },
        {
            "buffer" : 0,
            "byteLength" : 8224,
            "byteOffset" : 1057864
        },
        {
            "buffer" : 0,
            "byteLength" : 11712,
            "byteOffset" : 1066088
        },
        {
            "buffer" : 0,
            "byteLength" : 7644,
            "byteOffset" : 1077800
        },
        {
            "buffer" : 0,
            "byteLength" : 7644,
            "byteOffset" : 1085444
        },
        {
            "buffer" : 0,
            "byteLength" : 5096,
            "byteOffset" : 1093088
        },
        {
            "buffer" : 0,
            "byteLength" : 6912,
            "byteOffset" : 1098184
        },
        {
            "buffer" : 0,
            "byteLength" : 190133,
            "byteOffset" : 1105096
        },
        {
            "buffer" : 0,
            "byteLength" : 264,
            "byteOffset" : 1295232
        },
        {
            "buffer" : 0,
            "byteLength" : 264,
            "byteOffset" : 1295496
        },
        {
            "buffer" : 0,
            "byteLength" : 176,
            "byteOffset" : 1295760
        },
        {
            "buffer" : 0,
            "byteLength" : 120,
            "byteOffset" : 1295936
        },
        {
            "buffer" : 0,
            "byteLength" : 3876,
            "byteOffset" : 1296056
        },
        {
            "buffer" : 0,
            "byteLength" : 3876,
            "byteOffset" : 1299932
        },
        {
            "buffer" : 0,
            "byteLength" : 2584,
            "byteOffset" : 1303808
        },
        {
            "buffer" : 0,
            "byteLength" : 3168,
            "byteOffset" : 1306392
        },
        {
            "buffer" : 0,
            "byteLength" : 300,
            "byteOffset" : 1309560
        },
        {
            "buffer" : 0,
            "byteLength" : 300,
            "byteOffset" : 1309860
        },
        {
            "buffer" : 0,
            "byteLength" : 200,
            "byteOffset" : 1310160
        },
        {
            "buffer" : 0,
            "byteLength" : 132,
            "byteOffset" : 1310360
        },
        {
            "buffer" : 0,
            "byteLength" : 1536,
            "byteOffset" : 1310492
        },
        {
            "buffer" : 0,
            "byteLength" : 1536,
            "byteOffset" : 1312028
        },
        {
            "buffer" : 0,
            "byteLength" : 1024,
            "byteOffset" : 1313564
        },
        {
            "buffer" : 0,
            "byteLength" : 696,
            "byteOffset" : 1314588
        }
    ],
    "samplers" : [
        {
            "magFilter" : 9729,
            "minFilter" : 9987
        }
    ],
    "buffers" : [
        {
            "byteLength" : 1315284,
            "uri" : "data:application/octet-stream;base64,"
        }
    ]
}
